<svg height="480pt" viewBox="0 0 480 480" width="480pt" xmlns="http://www.w3.org/2000/svg" xmlns:xlink="http://www.w3.org/1999/xlink"><linearGradient id="a"><stop offset="0" stop-color="#e93e3a"/><stop offset=".36" stop-color="#ed683c"/><stop offset=".716" stop-color="#f3903f"/><stop offset="1" stop-color="#fdc70c"/></linearGradient><linearGradient id="b" gradientUnits="userSpaceOnUse" x1="237.904" x2="242.28" xlink:href="#a" y1="480.736" y2="-21.024"/><linearGradient id="c" gradientUnits="userSpaceOnUse" x1="52.168" x2="56.544" xlink:href="#a" y1="479.112" y2="-22.648"/><linearGradient id="d" gradientUnits="userSpaceOnUse" x1="84.168" x2="88.544" xlink:href="#a" y1="479.392" y2="-22.368"/><linearGradient id="e" gradientUnits="userSpaceOnUse" x1="116.168" x2="120.544" xlink:href="#a" y1="479.672" y2="-22.088"/><linearGradient id="f" gradientUnits="userSpaceOnUse" x1="284.152" x2="288.528" xlink:href="#a" y1="481.136" y2="-20.624"/><linearGradient id="g" gradientUnits="userSpaceOnUse" x1="130.432" x2="134.808" xlink:href="#a" y1="479.792" y2="-21.968"/><linearGradient id="h" gradientUnits="userSpaceOnUse" x1="346.416" x2="350.792" xlink:href="#a" y1="481.68" y2="-20.08"/><linearGradient id="i" gradientUnits="userSpaceOnUse" x1="238.144" x2="242.52" xlink:href="#a" y1="480.736" y2="-21.024"/><linearGradient id="j" gradientUnits="userSpaceOnUse" x1="101.28" x2="105.656" xlink:href="#a" y1="479.544" y2="-22.216"/><linearGradient id="k" gradientUnits="userSpaceOnUse" x1="237.272" x2="241.648" xlink:href="#a" y1="480.728" y2="-21.032"/><linearGradient id="l" gradientUnits="userSpaceOnUse" x1="373.264" x2="377.64" xlink:href="#a" y1="481.912" y2="-19.848"/><linearGradient id="m" gradientUnits="userSpaceOnUse" x1="103.024" x2="107.4" xlink:href="#a" y1="479.552" y2="-22.2"/><linearGradient id="n" gradientUnits="userSpaceOnUse" x1="239.016" x2="243.392" xlink:href="#a" y1="480.744" y2="-21.016"/><linearGradient id="o" gradientUnits="userSpaceOnUse" x1="375.008" x2="379.384" xlink:href="#a" y1="481.928" y2="-19.832"/><path d="m440 0h-400c-22.082031.0273438-39.9726562 17.917969-40 40v400c.0273438 22.082031 17.917969 39.972656 40 40h400c22.082031-.027344 39.972656-17.917969 40-40v-400c-.027344-22.082031-17.917969-39.9726562-40-40zm-400 16h400c13.253906 0 24 10.746094 24 24v24h-448v-24c0-13.253906 10.746094-24 24-24zm400 448h-400c-13.253906 0-24-10.746094-24-24v-360h448v360c0 13.253906-10.746094 24-24 24zm0 0" fill="url(#b)"/><path d="m48 32h16v16h-16zm0 0" fill="url(#c)"/><path d="m80 32h16v16h-16zm0 0" fill="url(#d)"/><path d="m112 32h16v16h-16zm0 0" fill="url(#e)"/><path d="m176 32h224v16h-224zm0 0" fill="url(#f)"/><path d="m144 304v24h16v-24h24v-16h-24v-72c0-3.398438-2.144531-6.425781-5.351562-7.550781-3.207032-1.128907-6.773438-.101563-8.894532 2.550781l-64 80c-1.925781 2.402344-2.300781 5.691406-.96875 8.464844 1.335938 2.773437 4.136719 4.535156 7.214844 4.535156zm0-65.191406v49.191406h-39.351562zm0 0" fill="url(#g)"/><path d="m376 216c0-3.398438-2.144531-6.425781-5.351562-7.550781-3.207032-1.128907-6.773438-.101563-8.894532 2.550781l-64 80c-1.925781 2.402344-2.300781 5.691406-.96875 8.464844 1.335938 2.773437 4.136719 4.535156 7.214844 4.535156h56v24h16v-24h24v-16h-24zm-16 22.808594v49.191406h-39.351562zm0 0" fill="url(#h)"/><path d="m224 208c-13.253906 0-24 10.746094-24 24v72c0 13.253906 10.746094 24 24 24h32c13.253906 0 24-10.746094 24-24v-72c0-13.253906-10.746094-24-24-24zm40 24v72c0 4.417969-3.582031 8-8 8h-32c-4.417969 0-8-3.582031-8-8v-72c0-4.417969 3.582031-8 8-8h32c4.417969 0 8 3.582031 8 8zm0 0" fill="url(#i)"/><path d="m88 160h32v16h-32zm0 0" fill="url(#j)"/><path d="m136 160h208v16h-208zm0 0" fill="url(#k)"/><path d="m360 160h32v16h-32zm0 0" fill="url(#l)"/><path d="m88 360h32v16h-32zm0 0" fill="url(#m)"/><path d="m136 360h208v16h-208zm0 0" fill="url(#n)"/><path d="m360 360h32v16h-32zm0 0" fill="url(#o)"/></svg>